<?xml version="1.0" encoding="UTF-8" standalone="no"?>
<!-- Generator: Adobe Illustrator 19.0.0, SVG Export Plug-In . SVG Version: 6.00 Build 0)  -->

<svg
   xmlns:dc="http://purl.org/dc/elements/1.1/"
   xmlns:cc="http://creativecommons.org/ns#"
   xmlns:rdf="http://www.w3.org/1999/02/22-rdf-syntax-ns#"
   xmlns:svg="http://www.w3.org/2000/svg"
   xmlns="http://www.w3.org/2000/svg"
   xmlns:sodipodi="http://sodipodi.sourceforge.net/DTD/sodipodi-0.dtd"
   xmlns:inkscape="http://www.inkscape.org/namespaces/inkscape"
   version="1.1"
   id="Layer_1"
   x="0px"
   y="0px"
   viewBox="0 0 512 335.448"
   xml:space="preserve"
   sodipodi:docname="tw.svg"
   width="512"
   height="335.448"
   inkscape:version="0.92.4 (5da689c313, 2019-01-14)"><metadata
   id="metadata53"><rdf:RDF><cc:Work
       rdf:about=""><dc:format>image/svg+xml</dc:format><dc:type
         rdf:resource="http://purl.org/dc/dcmitype/StillImage" /><dc:title></dc:title></cc:Work></rdf:RDF></metadata><defs
   id="defs51" /><sodipodi:namedview
   pagecolor="#ffffff"
   bordercolor="#666666"
   borderopacity="1"
   objecttolerance="10"
   gridtolerance="10"
   guidetolerance="10"
   inkscape:pageopacity="0"
   inkscape:pageshadow="2"
   inkscape:window-width="1920"
   inkscape:window-height="1001"
   id="namedview49"
   showgrid="false"
   fit-margin-top="0"
   fit-margin-left="0"
   fit-margin-right="0"
   fit-margin-bottom="0"
   inkscape:zoom="1.3037281"
   inkscape:cx="366.29455"
   inkscape:cy="129.30874"
   inkscape:window-x="-9"
   inkscape:window-y="-9"
   inkscape:window-maximized="1"
   inkscape:current-layer="Layer_1" />
<path
   style="fill:#ff4b55"
   d="M 473.655,335.448 H 38.345 C 17.167,335.448 0,318.281 0,297.104 V 38.346 C 0,17.169 17.167,10e-4 38.345,10e-4 h 435.31 C 494.832,10e-4 512,17.168 512,38.346 v 258.758 c 0,21.177 -17.167,38.344 -38.345,38.344 z"
   id="path2"
   inkscape:connector-curvature="0" />
<path
   style="fill:#41479b"
   d="m 8.828,167.724 h 238.345 c 4.875,0 8.828,-3.951 8.828,-8.828 V 8.828 C 256.001,3.953 252.048,0 247.173,0 H 38.345 C 17.167,10e-4 0,17.168 0,38.346 v 120.552 c 0,4.875 3.953,8.826 8.828,8.826 z"
   id="path4"
   inkscape:connector-curvature="0" />
<g
   id="g16"
   transform="translate(0,-88.276)">
	<path
   style="fill:#f5f5f5"
   d="m 96.403,172.139 c 0,-8.722 3.534,-16.618 9.248,-22.335 l -26.474,-7.573 c -1.537,-0.439 -2.638,1.469 -1.49,2.58 l 19.811,19.155 -26.734,6.684 c -1.55,0.387 -1.55,2.591 0,2.979 l 26.734,6.684 -19.811,19.155 c -1.149,1.111 -0.047,3.019 1.49,2.58 l 26.474,-7.573 c -5.714,-5.718 -9.248,-13.614 -9.248,-22.336 z"
   id="path6"
   inkscape:connector-curvature="0" />
	<path
   style="fill:#f5f5f5"
   d="m 105.665,149.79 c 5.717,-5.714 13.613,-9.248 22.335,-9.248 8.722,0 16.618,3.534 22.335,9.248 l 7.573,-26.474 c 0.439,-1.537 -1.469,-2.638 -2.58,-1.49 l -19.155,19.81 -6.684,-26.734 c -0.387,-1.55 -2.591,-1.55 -2.979,0 l -6.684,26.734 -19.155,-19.81 c -1.111,-1.149 -3.02,-0.047 -2.58,1.49 z"
   id="path8"
   inkscape:connector-curvature="0" />
	<path
   style="fill:#f5f5f5"
   d="m 150.335,194.488 c -5.717,5.714 -13.613,9.248 -22.335,9.248 -8.722,0 -16.618,-3.534 -22.335,-9.248 l -7.573,26.475 c -0.439,1.537 1.469,2.638 2.58,1.49 l 19.155,-19.81 6.684,26.734 c 0.387,1.55 2.591,1.55 2.979,0 l 6.684,-26.734 19.155,19.81 c 1.111,1.149 3.019,0.047 2.58,-1.49 z"
   id="path10"
   inkscape:connector-curvature="0" />
	<path
   style="fill:#f5f5f5"
   d="m 185.236,170.648 -26.734,-6.684 19.81,-19.155 c 1.149,-1.111 0.047,-3.019 -1.49,-2.58 l -26.474,7.573 c 5.714,5.718 9.248,13.613 9.248,22.335 0,8.722 -3.534,16.618 -9.248,22.335 l 26.474,7.573 c 1.537,0.439 2.638,-1.469 1.49,-2.58 l -19.81,-19.155 26.734,-6.684 c 1.551,-0.385 1.551,-2.588 0,-2.978 z"
   id="path12"
   inkscape:connector-curvature="0" />
	<circle
   style="fill:#f5f5f5"
   cx="128"
   cy="172.14101"
   r="25.16"
   id="circle14" />
</g>
<g
   id="g18"
   transform="translate(0,-88.276)">
</g>
<g
   id="g20"
   transform="translate(0,-88.276)">
</g>
<g
   id="g22"
   transform="translate(0,-88.276)">
</g>
<g
   id="g24"
   transform="translate(0,-88.276)">
</g>
<g
   id="g26"
   transform="translate(0,-88.276)">
</g>
<g
   id="g28"
   transform="translate(0,-88.276)">
</g>
<g
   id="g30"
   transform="translate(0,-88.276)">
</g>
<g
   id="g32"
   transform="translate(0,-88.276)">
</g>
<g
   id="g34"
   transform="translate(0,-88.276)">
</g>
<g
   id="g36"
   transform="translate(0,-88.276)">
</g>
<g
   id="g38"
   transform="translate(0,-88.276)">
</g>
<g
   id="g40"
   transform="translate(0,-88.276)">
</g>
<g
   id="g42"
   transform="translate(0,-88.276)">
</g>
<g
   id="g44"
   transform="translate(0,-88.276)">
</g>
<g
   id="g46"
   transform="translate(0,-88.276)">
</g>
</svg>